<?xml version="1.0" encoding="UTF-8" standalone="no"?>
<svg
   viewBox="0 0 500 112"
   width="500"
   height="112"
   version="1.1"
   id="svg3"
   sodipodi:docname="agama_logo_beige-prep.svg"
   xmlns:inkscape="http://www.inkscape.org/namespaces/inkscape"
   xmlns:sodipodi="http://sodipodi.sourceforge.net/DTD/sodipodi-0.dtd"
   xmlns="http://www.w3.org/2000/svg"
   xmlns:svg="http://www.w3.org/2000/svg">
  <sodipodi:namedview
     id="namedview3"
     pagecolor="#ffffff"
     bordercolor="#000000"
     borderopacity="0.25"
     inkscape:showpageshadow="2"
     inkscape:pageopacity="0.0"
     inkscape:pagecheckerboard="0"
     inkscape:deskcolor="#d1d1d1" />
  <g
     transform="translate(1, 0) scale(0.2136)"
     id="g3">
    <g
       fill="#fdf8ed"
       transform="translate(256, 256) scale(0.48) translate(-496, -308)"
       id="g2">
      <path
         d="M 584.72 504.09 C 567.71 482.96 549.09 462.72 531.37 441.99 C 513.40 421.51 495.68 400.51 477.32 380.54 C 461.20 394.12 444.13 407.95 423.93 415.32 C 403.98 423.15 381.51 424.21 361.03 417.77 C 319.40 404.66 290.36 369.91 262.33 338.48 C 234.64 305.94 210.36 270.23 192.64 231.26 C 183.72 211.84 176.44 191.65 171.13 170.93 C 166.94 151.12 157.76 127.35 170.83 109.09 C 182.71 98.17 200.28 102.95 214.21 106.46 C 228.73 110.69 242.66 116.82 255.73 124.44 C 281.49 140.38 305.24 159.38 327.97 179.36 C 373.28 219.67 411.92 266.66 452.78 311.30 C 533.05 401.89 612.40 493.60 690.80 585.63 C 721.94 544.52 752.63 502.45 783.01 460.70 C 684.66 359.99 591.72 253.67 493.69 152.39 C 445.14 101.93 384.18 60.28 314.86 45.53 C 247.32 30.47 166.29 44.07 123.09 102.78 C 79.44 161.14 86.92 239.61 103.29 306.29 C 120.98 374.71 159.77 436.61 210.42 485.54 C 260.48 533.67 321.91 577.93 393.77 581.30 C 465.16 585.22 532.04 549.03 584.72 504.09 Z"
         id="path1" />
      <path
         d="M 735.31 42.47 C 689.61 102.52 644.31 163.55 599.38 224.29 C 617.22 244.73 636.32 264.44 654.73 284.55 C 663.94 294.61 673.30 304.56 682.51 314.64 C 687.21 319.58 691.72 324.72 696.44 329.63 C 701.17 334.41 705.24 340.31 710.58 344.15 C 715.26 338.57 718.84 331.52 723.08 325.37 C 727.16 319.02 731.29 312.70 735.43 306.39 C 743.69 293.74 752.03 281.12 760.29 268.47 C 776.97 243.26 793.61 218.03 810.38 192.87 C 827.09 167.69 843.97 142.59 860.75 117.46 C 869.18 104.90 877.71 92.45 886.06 79.86 C 890.29 73.62 894.64 67.45 898.77 61.14 C 900.93 58.05 903.04 54.92 905.13 51.77 C 906.24 50.26 907.30 48.68 908.32 47.09 C 908.89 45.71 911.68 43.81 910.26 42.44 C 851.95 42.25 793.63 42.39 735.31 42.47 Z"
         id="path2" />
    </g>
  </g>
  <path
     d="m 147.4,90 27.552,-67.104 h 7.584 L 209.992,90 H 198.28 l -21.6,-54.624 h 3.936 L 158.824,90 Z M 160.936,76.848 V 67.44 h 35.52 v 9.408 z m 73.72803,33.312 q -7.296,0 -12.768,-2.688 -5.376,-2.592 -8.736,-7.392 l 6.72,-6.816 q 2.784,3.552 6.336,5.28 3.648,1.728 8.64,1.728 6.336,0 9.984,-3.264 3.744,-3.264 3.744,-8.928 V 76.752 l 1.824,-10.176 -1.824,-10.272 V 44.016 h 10.368 V 88.08 q 0,6.624 -3.072,11.52 -3.072,4.992 -8.544,7.776 -5.472,2.784 -12.672,2.784 z m -0.384,-21.12 q -6.144,0 -11.136,-2.976 -4.896,-3.072 -7.776,-8.352 -2.784,-5.28 -2.784,-11.808 0,-6.528 2.784,-11.712 2.88,-5.184 7.776,-8.16 4.992,-2.976 11.136,-2.976 5.472,0 9.6,2.208 4.128,2.112 6.432,6.048 2.304,3.84 2.304,9.024 V 71.76 q 0,5.088 -2.4,9.024 -2.304,3.84 -6.432,6.048 -4.128,2.208 -9.504,2.208 z m 2.016,-9.792 q 3.936,0 6.816,-1.632 2.88,-1.632 4.512,-4.608 1.632,-2.976 1.632,-7.008 0,-3.936 -1.632,-6.912 -1.632,-2.976 -4.512,-4.608 -2.88,-1.632 -6.816,-1.632 -3.84,0 -6.816,1.632 -2.976,1.632 -4.704,4.608 -1.632,2.976 -1.632,6.912 0,3.936 1.632,7.008 1.728,2.976 4.704,4.608 2.976,1.632 6.816,1.632 z m 53.76008,11.712 q -6.24,0 -11.328,-3.168 -4.992,-3.168 -7.968,-8.544 -2.976,-5.472 -2.976,-12.192 0,-6.816 2.976,-12.192 2.976,-5.472 7.968,-8.64 5.088,-3.168 11.328,-3.168 5.28,0 9.312,2.208 4.128,2.208 6.528,6.144 2.4,3.936 2.4,8.928 v 13.248 q 0,4.992 -2.4,8.928 -2.4,3.936 -6.528,6.24 -4.032,2.208 -9.312,2.208 z m 1.632,-9.792 q 5.952,0 9.6,-3.936 3.648,-4.032 3.648,-10.272 0,-4.128 -1.728,-7.296 -1.632,-3.264 -4.608,-4.992 -2.88,-1.824 -6.912,-1.824 -3.84,0 -6.816,1.824 -2.976,1.728 -4.704,4.992 -1.728,3.168 -1.728,7.296 0,4.224 1.728,7.392 1.728,3.168 4.704,4.992 2.976,1.824 6.816,1.824 z M 304.26411,90 V 77.616 l 1.728,-11.232 -1.728,-11.136 V 44.016 h 10.368 V 90 Z m 22.07999,0 V 44.016 h 10.368 V 90 Z m 30.72,0 V 62.544 q 0,-4.704 -2.976,-7.2 -2.88,-2.592 -7.104,-2.592 -2.976,0 -5.28,1.152 -2.208,1.152 -3.648,3.36 -1.344,2.208 -1.344,5.28 l -4.032,-2.304 q 0,-5.28 2.304,-9.12 2.304,-3.84 6.24,-5.952 3.936,-2.112 8.832,-2.112 4.896,0 8.832,2.112 3.936,2.112 6.24,5.952 2.304,3.84 2.304,9.12 V 90 Z m 30.624,0 V 62.544 q 0,-4.704 -2.976,-7.2 -2.88,-2.592 -7.104,-2.592 -2.784,0 -5.184,1.152 -2.304,1.152 -3.648,3.36 -1.344,2.208 -1.344,5.28 l -5.856,-2.304 q 0.48,-5.28 2.976,-9.12 2.592,-3.84 6.624,-5.952 4.128,-2.112 9.024,-2.112 4.992,0 9.024,2.112 4.032,2.112 6.432,5.952 2.4,3.84 2.4,9.12 V 90 Z m 40.60806,0.96 q -6.24,0 -11.328,-3.168 -4.992,-3.168 -7.968,-8.544 -2.976,-5.472 -2.976,-12.192 0,-6.816 2.976,-12.192 2.976,-5.472 7.968,-8.64 5.088,-3.168 11.328,-3.168 5.28,0 9.312,2.208 4.128,2.208 6.528,6.144 2.4,3.936 2.4,8.928 v 13.248 q 0,4.992 -2.4,8.928 -2.4,3.936 -6.528,6.24 -4.032,2.208 -9.312,2.208 z m 1.632,-9.792 q 5.952,0 9.6,-3.936 3.648,-4.032 3.648,-10.272 0,-4.128 -1.728,-7.296 -1.632,-3.264 -4.608,-4.992 -2.88,-1.824 -6.912,-1.824 -3.84,0 -6.816,1.824 -2.976,1.728 -4.704,4.992 -1.728,3.168 -1.728,7.296 0,4.224 1.728,7.392 1.728,3.168 4.704,4.992 2.976,1.824 6.816,1.824 z M 442.50416,90 V 77.616 l 1.728,-11.232 -1.728,-11.136 V 44.016 h 10.368 V 90 Z"
     id="text3"
     style="font-size:96px;fill:#fdf8ed"
     aria-label="Agama" />
</svg>
